<?xml version="1.0" standalone="no"?>
<!DOCTYPE svg PUBLIC "-//W3C//DTD SVG 20010904//EN"
 "http://www.w3.org/TR/2001/REC-SVG-20010904/DTD/svg10.dtd">
<svg version="1.0" xmlns="http://www.w3.org/2000/svg"
 width="775.000000pt" height="228.000000pt" viewBox="0 0 775.000000 228.000000"
 preserveAspectRatio="xMidYMid meet">

<g transform="translate(0.000000,228.000000) scale(0.100000,-0.100000)"
fill="#000000" stroke="none">
<path d="M1770 1130 l0 -860 115 0 115 0 0 430 0 430 120 0 120 0 0 95 0 95
-120 0 -120 0 -2 333 -3 332 -112 3 -113 3 0 -861z"/>
<path d="M900 1790 l0 -90 260 0 260 0 0 90 0 90 -260 0 -260 0 0 -90z"/>
<path d="M2510 1395 l0 -455 590 0 590 0 0 90 0 90 -475 0 -475 0 0 90 0 90
445 0 445 0 0 90 0 90 -445 0 -445 0 0 95 0 95 465 0 465 0 0 90 0 90 -580 0
-580 0 0 -455z"/>
<path d="M4615 1594 c-163 -34 -298 -131 -362 -262 -38 -76 -38 -77 -38 -201
0 -121 1 -129 32 -193 85 -181 276 -288 512 -288 183 0 366 85 449 208 101
150 109 361 19 511 -108 181 -367 276 -612 225z m280 -180 c81 -25 138 -73
175 -148 29 -59 32 -71 29 -143 -9 -191 -133 -298 -344 -298 -163 0 -274 61
-326 177 -46 106 -25 254 49 331 90 95 264 128 417 81z"/>
<path d="M6330 1445 c0 -141 -3 -175 -21 -227 -54 -163 -215 -316 -419 -399
l-79 -32 40 -79 c22 -43 45 -78 52 -78 29 1 178 69 247 114 81 52 228 194 254
245 9 17 20 31 25 31 4 0 25 -25 46 -55 94 -138 310 -287 460 -319 29 -6 31
-4 68 69 20 41 37 77 37 79 0 3 -24 12 -52 21 -188 61 -368 217 -429 373 -21
50 -24 78 -27 240 l-4 182 -99 0 -99 0 0 -165z"/>
<path d="M700 1490 l0 -90 170 0 170 0 0 -42 c0 -52 -23 -165 -47 -227 -55
-150 -185 -299 -334 -383 -21 -12 -39 -26 -39 -31 0 -5 30 -44 67 -87 l68 -78
40 20 c133 68 285 231 345 371 14 31 28 57 31 57 3 0 13 -17 23 -37 51 -107
196 -263 308 -330 84 -51 78 -52 141 37 31 44 57 84 57 88 0 4 -28 23 -62 42
-35 19 -102 73 -149 120 -72 70 -93 100 -127 170 -42 89 -72 201 -72 269 l0
41 165 0 165 0 0 90 0 90 -460 0 -460 0 0 -90z"/>
<path d="M2314 657 c-3 -8 -4 -49 -2 -93 l3 -79 775 0 775 0 0 90 0 90 -773 3
c-640 2 -773 0 -778 -11z"/>
</g>
</svg>
