<?xml version="1.0" standalone="no"?>
<!DOCTYPE svg PUBLIC "-//W3C//DTD SVG 20010904//EN"
 "http://www.w3.org/TR/2001/REC-SVG-20010904/DTD/svg10.dtd">
<svg version="1.0" xmlns="http://www.w3.org/2000/svg"
 width="960.000000pt" height="602.000000pt" viewBox="0 0 960.000000 602.000000"
 preserveAspectRatio="xMidYMid meet">

<g transform="translate(0.000000,602.000000) scale(0.100000,-0.100000)"
fill="#000000" stroke="none">
<path d="M4925 5054 c-16 -7 -59 -27 -95 -43 -36 -16 -135 -61 -220 -99 -85
-38 -180 -81 -210 -95 -30 -14 -102 -46 -160 -72 -152 -68 -184 -82 -290 -130
-52 -24 -189 -86 -305 -138 -115 -52 -235 -106 -265 -120 -154 -70 -193 -87
-200 -87 -10 0 -21 58 -60 315 -16 114 -38 167 -89 215 -74 73 -173 90 -266
46 -91 -42 -146 -127 -165 -254 -5 -37 -14 -92 -19 -122 -24 -134 -32 -274
-20 -373 7 -53 10 -100 7 -103 -7 -6 -247 -114 -255 -114 -3 0 -3 36 1 80 9
109 -21 178 -94 215 -86 43 -162 24 -348 -88 -137 -82 -192 -99 -392 -122 -69
-8 -152 -19 -185 -23 -33 -5 -118 -5 -190 0 -322 21 -776 9 -949 -24 -50 -10
-68 -19 -108 -58 l-48 -46 0 -76 c0 -131 46 -197 148 -212 27 -4 90 1 165 14
217 36 242 40 262 35 11 -3 56 -9 100 -15 44 -5 103 -16 130 -23 l50 -14 6
-84 c4 -46 10 -112 14 -146 l8 -63 -49 -21 c-55 -23 -72 -31 -204 -91 -52 -25
-119 -55 -147 -68 -55 -25 -59 -32 -43 -74 l10 -26 206 0 206 0 -7 -207 c-4
-115 -11 -235 -16 -268 -5 -33 -9 -107 -9 -165 0 -114 -21 -258 -48 -330 -26
-72 -82 -182 -111 -220 -44 -59 -51 -78 -51 -138 0 -62 9 -82 69 -145 57 -61
104 -82 186 -81 58 0 80 6 131 32 134 68 213 189 276 422 19 72 23 109 23 245
0 88 -4 212 -9 276 -7 97 -6 120 6 138 l15 21 11 -23 c6 -12 25 -53 42 -92 45
-99 151 -255 211 -309 69 -62 158 -103 242 -112 l67 -7 0 -513 c0 -282 3 -519
6 -528 6 -15 287 -16 3085 -16 l3079 0 0 590 c0 611 0 609 39 577 28 -23 91
-39 126 -33 74 14 115 97 145 288 6 37 14 77 19 90 8 21 10 20 30 -25 12 -27
24 -60 27 -74 4 -14 22 -40 41 -59 40 -40 77 -44 117 -13 37 29 35 82 -11 199
-42 109 -67 140 -116 140 -38 0 -87 -32 -87 -58 -1 -16 -1 -16 -11 0 -5 10 -8
65 -7 125 l3 107 60 34 c33 18 83 55 110 83 l51 49 126 0 c112 0 127 -2 132
-17 15 -56 17 -123 6 -273 l-13 -167 28 -47 c27 -47 50 -66 79 -66 22 0 92 65
104 98 41 106 83 270 92 357 6 54 14 103 18 107 4 4 84 9 177 10 l170 3 3 37
c3 41 10 36 -168 115 -151 67 -223 106 -248 134 -25 28 -36 33 -83 35 -39 1
-78 13 -139 42 -47 21 -152 70 -235 107 -82 37 -177 80 -210 95 -33 15 -82 37
-110 50 -98 44 -251 113 -345 155 -157 71 -213 96 -249 113 l-35 16 30 13 c16
6 41 12 55 13 43 0 120 27 145 51 69 65 13 189 -85 189 -17 0 -39 -4 -49 -9
-9 -5 -57 -19 -107 -31 -49 -12 -130 -37 -178 -56 -139 -56 -131 -67 -138 181
-8 264 -27 542 -38 575 -5 14 -12 55 -15 92 -6 81 -24 110 -82 138 -39 19 -54
21 -136 15 -51 -4 -107 -13 -124 -20 -45 -19 -80 -70 -99 -148 -18 -71 -18
-109 1 -499 4 -92 3 -128 -5 -128 -6 0 -39 13 -74 28 -34 16 -87 39 -117 53
-30 13 -86 40 -124 59 -64 32 -70 39 -85 83 -46 138 -170 188 -341 138 -43
-13 -48 -12 -110 17 -57 26 -175 80 -331 151 -26 11 -111 49 -190 85 -79 35
-224 100 -322 145 -98 44 -188 81 -200 80 -12 0 -35 -7 -52 -15z m221 -140
c93 -42 203 -91 244 -109 41 -18 104 -46 140 -63 93 -43 379 -172 420 -189
l34 -15 -29 -16 c-49 -25 -164 -52 -227 -52 -50 0 -62 -4 -90 -29 -26 -23 -33
-37 -33 -68 0 -50 27 -91 70 -109 41 -17 227 -19 325 -3 36 5 82 13 104 16
l38 6 -7 -64 c-4 -35 -11 -83 -16 -106 -5 -24 -14 -71 -19 -105 -5 -35 -17
-97 -25 -138 -32 -160 -61 -309 -76 -395 -6 -33 -12 -110 -12 -172 -2 -109 -1
-112 28 -154 56 -79 149 -102 230 -56 60 34 89 101 104 240 10 104 27 212 51
332 6 28 17 89 25 138 8 48 22 129 31 180 26 156 32 200 33 254 1 28 5 54 10
58 5 3 38 -8 73 -23 35 -16 116 -53 180 -82 l117 -52 5 -72 c29 -415 51 -599
92 -766 9 -36 19 -99 24 -140 13 -121 48 -195 116 -246 53 -41 151 -46 226
-12 135 62 182 180 123 307 -54 114 -65 198 -65 466 -1 121 0 221 0 223 0 2
12 -6 26 -17 14 -11 42 -24 63 -27 20 -4 110 -41 201 -82 91 -41 185 -83 210
-94 25 -12 70 -32 100 -46 30 -13 98 -44 150 -67 52 -24 140 -63 195 -88 55
-24 120 -54 145 -65 25 -11 122 -55 215 -97 94 -42 180 -81 193 -86 27 -10 28
-25 3 -65 -10 -17 -22 -46 -26 -65 -15 -74 -5 -69 -129 -69 -110 0 -113 1
-124 24 -28 62 -90 69 -187 22 -82 -39 -123 -46 -282 -46 l-152 0 -9 -31 c-7
-27 -15 -34 -53 -43 -89 -23 -139 -79 -139 -157 0 -57 50 -109 107 -109 21 0
48 -3 61 -6 l22 -6 0 -834 0 -834 -3002 2 -3003 3 -3 465 c-1 256 0 475 3 488
3 12 13 22 23 22 59 0 249 132 322 222 97 120 164 337 138 447 -28 125 -157
188 -268 131 -47 -24 -72 -58 -101 -136 -25 -66 -41 -95 -80 -141 l-27 -32 -6
25 c-4 14 -6 132 -6 262 0 130 1 243 0 250 0 9 -44 12 -185 12 -172 0 -185 1
-195 19 -5 11 -10 33 -10 49 0 16 -9 65 -21 108 -27 102 -43 214 -32 224 16
15 320 148 394 173 110 37 176 66 239 105 78 50 413 201 424 192 4 -4 14 -34
21 -67 7 -32 31 -128 54 -213 102 -381 141 -818 110 -1239 -9 -127 -34 -326
-44 -341 -2 -3 -13 -88 -25 -189 -12 -101 -26 -195 -31 -208 -27 -72 14 -176
87 -223 123 -78 277 -4 317 153 9 34 26 139 37 232 11 94 27 215 35 270 28
197 40 384 38 613 l-1 232 116 0 c184 0 284 16 370 57 130 63 176 122 176 223
-1 100 -59 175 -155 201 -60 16 -271 -1 -349 -29 -30 -10 -61 -21 -69 -23 -11
-3 -13 25 -12 151 1 85 -4 193 -9 240 -6 47 -17 137 -24 200 -8 63 -20 143
-27 177 -7 35 -11 64 -8 66 2 2 87 41 189 87 252 113 270 121 395 178 123 56
155 70 305 137 58 26 128 57 155 70 28 12 73 32 100 45 63 28 260 118 300 136
34 15 339 153 341 154 1 0 77 -34 170 -76z m-4266 -1821 c0 -62 -5 -64 -121
-61 l-104 3 95 47 c119 59 130 60 130 11z m8355 -22 c36 -17 65 -32 65 -35 0
-3 -31 -6 -69 -6 -67 0 -69 1 -74 27 -5 26 -1 43 9 43 2 0 34 -13 69 -29z
m-7345 -128 c3 -355 0 -527 -8 -535 -30 -30 -99 32 -150 135 -56 115 -72 158
-103 285 -32 132 -42 122 121 122 77 0 140 -3 140 -7z m6200 -340 c0 -43 -3
-102 -7 -131 -10 -88 -23 -38 -23 91 0 97 3 117 15 117 12 0 15 -15 15 -77z"/>
<path d="M5115 4806 c-41 -19 -80 -63 -99 -111 -41 -109 -57 -385 -35 -615 5
-58 14 -163 19 -235 7 -96 20 -171 50 -289 22 -87 43 -162 46 -167 9 -15 47
-236 64 -374 13 -103 32 -159 74 -216 64 -88 192 -122 291 -79 126 54 172 158
146 330 -7 41 -16 113 -22 160 -5 47 -13 103 -19 125 -5 22 -16 81 -25 130
-22 126 -43 211 -66 275 -11 30 -24 96 -29 145 -25 258 -32 312 -40 339 -6 16
-10 56 -10 90 0 61 -30 250 -50 316 -12 40 -82 133 -122 163 -35 26 -130 33
-173 13z"/>
<path d="M4330 3088 c-14 -7 -45 -20 -70 -31 -25 -11 -65 -29 -90 -40 -32 -14
-75 -21 -151 -25 -157 -7 -224 -46 -235 -138 -6 -48 19 -100 61 -129 17 -11
65 -26 105 -33 77 -14 117 -10 308 28 56 12 151 50 219 89 55 32 88 94 80 153
-12 91 -142 163 -227 126z"/>
<path d="M6209 2915 c-79 -29 -192 -97 -289 -174 -43 -35 -47 -36 -130 -37
-80 0 -91 -3 -151 -36 -86 -49 -179 -145 -179 -187 0 -38 31 -71 66 -71 14 0
54 16 88 35 71 40 123 45 177 18 22 -11 58 -17 100 -17 58 0 76 5 146 41 44
23 102 46 129 52 125 25 207 62 250 113 49 60 54 145 11 209 -42 63 -133 86
-218 54z"/>
<path d="M6661 2747 c-48 -19 -108 -72 -132 -118 -11 -23 -22 -69 -25 -107 -3
-37 -9 -87 -14 -112 -5 -25 -16 -85 -25 -135 -9 -49 -26 -115 -37 -145 -11
-30 -37 -102 -58 -160 -20 -58 -40 -112 -43 -120 -18 -47 -57 -182 -65 -225
-6 -27 -22 -88 -37 -135 -14 -47 -27 -110 -27 -140 -1 -98 51 -183 138 -226
48 -23 63 -26 127 -22 130 8 208 77 325 284 52 90 84 169 107 264 10 41 22 79
27 84 5 6 19 2 35 -10 66 -48 104 -58 208 -58 95 0 105 2 197 41 53 23 112 44
130 48 124 27 218 134 218 250 -1 126 -112 235 -240 235 -20 0 -58 -7 -85 -16
-37 -13 -68 -15 -139 -11 -50 4 -104 10 -121 15 -16 6 -49 15 -73 23 -50 15
-50 13 -55 174 -3 94 -8 130 -24 166 -28 61 -77 115 -126 141 -49 25 -140 32
-186 15z"/>
<path d="M4370 2669 c-27 -13 -94 -28 -270 -63 -161 -32 -193 -43 -217 -68
-54 -59 -57 -196 -7 -287 66 -122 144 -170 289 -178 79 -5 97 -3 143 17 159
68 204 268 65 287 -41 5 -44 3 -98 -51 -43 -43 -63 -56 -86 -56 -54 0 -120 49
-132 98 -5 21 -2 22 56 22 127 1 206 16 282 54 90 44 125 83 125 136 0 74 -79
120 -150 89z"/>
<path d="M4753 2378 c-13 -6 -73 -68 -134 -137 -127 -142 -301 -294 -391 -340
-33 -17 -94 -40 -136 -51 -234 -62 -361 -126 -377 -192 -10 -41 17 -92 61
-113 32 -15 54 -17 143 -12 202 11 317 56 541 209 19 13 73 50 120 81 116 76
216 181 286 297 64 107 76 158 49 209 -26 52 -107 76 -162 49z"/>
<path d="M1559 4732 c-30 -16 -88 -47 -129 -70 -83 -45 -175 -78 -315 -111
-49 -12 -106 -26 -126 -31 -20 -6 -61 -15 -90 -21 -30 -6 -85 -18 -124 -26
-141 -29 -226 -35 -313 -23 -74 10 -87 9 -110 -6 -43 -26 -62 -56 -62 -97 0
-73 60 -125 175 -152 76 -17 541 -22 604 -6 20 6 70 17 111 26 79 18 320 128
414 190 146 96 206 207 161 295 -33 64 -111 76 -196 32z"/>
<path d="M8618 2130 c-43 -29 -57 -49 -102 -153 -34 -79 -15 -493 27 -574 19
-36 84 -73 128 -73 55 0 245 65 327 112 58 33 81 60 138 163 l39 70 -2 162
c-2 177 -12 233 -48 269 -55 55 -123 13 -150 -91 -9 -33 -17 -60 -18 -61 -1
-2 -25 -6 -53 -9 l-51 -7 -7 52 c-10 76 -29 106 -89 140 -65 37 -82 37 -139 0z
m298 -461 c6 -10 -44 -49 -63 -49 -16 0 -27 24 -19 45 5 15 73 19 82 4z"/>
</g>
</svg>
